# xmcd
#
# Track frame offsets:
#	150
#	14177
#	33725
#	46117
#	61972
#	77090
#	91002
#	104872
#	117972
#	130497
#	143545
#	157530
#	176865
#	203802
#	215287
#	224685
#	237402
#	253502
#	275627
#	293857
#	318177
#
# Disc length: 4795
#
# Revision: 2
# Processed by: cddbd v1.5.1PL0 Copyright (c) Steve Scherf et al.
# Submitted via: EasyCDDAExtractor 5.0.6
# Normalized: r1:DSETVAR1
#
DISCID=3b12b915
DTITLE=Various Artist - Lady sings the blues CD1
DYEAR=1900
DGENRE=
TTITLE0=Norah Jones - Don't know why
TTITLE1=Randy Crawford - Rainy night in Georgia
TTITLE2=Aretha Franklin - A Natural woman
TTITLE3=Dusty Springfield - The look of love
TTITLE4=Peggy Lee - Fever
TTITLE5=Etta James - I Just wanna make love to you
TTITLE6=Ella Fitzgerald - Night and day
TTITLE7=Billie Holiday - That ole devil called love
TTITLE8=Dinah Washington - Mad about the boy
TTITLE9=Dionne Warwick - Walk on by
TTITLE10=Nancy Wilson - All night long
TTITLE11=June Christy - Something cool
TTITLE12=Sarah Vaughan - Misty
TTITLE13=Erma Franklin - Piece of my heart
TTITLE14=Bobbie Gentry - Son of a preacher man
TTITLE15=Julie London - Cry me a river
TTITLE16=Dinah Shore and Andre Previn - My funny valentine
TTITLE17=Ella Fitzgerald - Summertime
TTITLE18=Nina Simone - I Loves you porgy
TTITLE19=Julie London - 'Round midnight
TTITLE20=Data - CD Player
EXTD=
EXTT0=
EXTT1=
EXTT2=
EXTT3=
EXTT4=
EXTT5=
EXTT6=
EXTT7=
EXTT8=
EXTT9=
EXTT10=
EXTT11=
EXTT12=
EXTT13=
EXTT14=
EXTT15=
EXTT16=
EXTT17=
EXTT18=
EXTT19=
EXTT20=
PLAYORDER=
